<svg width="1440" height="1024" viewBox="0 0 1440 1024" fill="none" xmlns="http://www.w3.org/2000/svg">
<rect width="1440" height="1024" fill="#E5E5E5"/>
<rect width="1440" height="1024" fill="white"/>
<g clip-path="url(#clip0)">
<path d="M701.999 344.293C785.752 344.293 853.646 276.398 853.646 192.646C853.646 108.894 785.752 40.9997 701.999 40.9997C618.247 40.9997 550.353 108.894 550.353 192.646C550.353 276.398 618.247 344.293 701.999 344.293Z" fill="#A5E887"/>
<path d="M701.999 40.9987V344.293C785.752 344.293 853.646 276.398 853.646 192.646C853.646 108.895 785.752 40.9987 701.999 40.9987Z" fill="#00CC76"/>
<path d="M868.646 192.646C868.646 100.757 793.888 26 701.999 26C610.112 26 535.354 100.757 535.354 192.646C535.354 268.613 586.45 332.866 656.077 352.854V411.037H602.588L701.988 538.001L801.388 411.037H747.9V352.861C817.539 332.88 868.646 268.621 868.646 192.646ZM565.352 192.646C565.352 117.298 626.652 55.9974 701.999 55.9974C777.348 55.9974 838.648 117.298 838.648 192.646C838.648 267.994 777.348 329.294 701.999 329.294C626.652 329.294 565.352 267.995 565.352 192.646Z" fill="#00CC76"/>
<path d="M868.646 192.646C868.646 100.757 793.888 26 701.999 26V55.9974C777.348 55.9974 838.648 117.298 838.648 192.646C838.648 267.994 777.348 329.294 701.999 329.294V537.985L801.387 411.036H747.899V352.86C817.539 332.88 868.646 268.621 868.646 192.646Z" fill="#009986"/>
<path d="M721.546 176.534H690.094C683.198 176.534 677.59 170.925 677.59 164.03C677.59 157.134 683.199 151.525 690.094 151.525H743.195V121.528H716.965V102.079H686.968V121.655C664.988 123.261 647.592 141.647 647.592 164.03C647.592 187.466 666.659 206.531 690.094 206.531H721.546C729.055 206.531 735.164 212.64 735.164 220.149C735.164 227.658 729.055 233.767 721.546 233.767H653.772V263.764H686.968V283.212H716.965V263.764H721.546C745.596 263.764 765.161 244.199 765.161 220.149C765.161 196.099 745.595 176.534 721.546 176.534Z" fill="#FFF5F5"/>
<path d="M743.195 151.525V121.528H716.965V102.079H701.999V151.525H743.195Z" fill="#E1EBF0"/>
<path d="M716.965 263.764H721.546C745.596 263.764 765.161 244.199 765.161 220.149C765.161 196.099 745.596 176.534 721.546 176.534H702.001V206.531H721.546C729.055 206.531 735.164 212.64 735.164 220.149C735.164 227.658 729.055 233.767 721.546 233.767H702.001V283.212H716.966V263.764H716.965Z" fill="#E1EBF0"/>
</g>
<ellipse cx="702.5" cy="730" rx="177.5" ry="182" fill="#009986"/>
<path d="M701.647 881.293C785.399 881.293 853.293 813.399 853.293 729.647C853.293 645.895 785.399 578 701.647 578C617.895 578 550 645.895 550 729.647C550 813.399 617.895 881.293 701.647 881.293Z" fill="#A5E887"/>
<path d="M701 578V881.294C784.753 881.294 852.647 813.399 852.647 729.648C852.647 645.896 784.753 578 701 578Z" fill="#00CC76"/>
<path d="M645.266 741.359H626.594V783H603.156V669.25H645.422C658.859 669.25 669.224 672.245 676.516 678.234C683.807 684.224 687.453 692.688 687.453 703.625C687.453 711.385 685.76 717.87 682.375 723.078C679.042 728.234 673.964 732.349 667.141 735.422L691.75 781.906V783H666.594L645.266 741.359ZM626.594 722.375H645.5C651.385 722.375 655.943 720.891 659.172 717.922C662.401 714.901 664.016 710.76 664.016 705.5C664.016 700.135 662.479 695.917 659.406 692.844C656.385 689.771 651.724 688.234 645.422 688.234H626.594V722.375Z" fill="#FFFEFF"/>
<path d="M772.241 713.547H747.897C742.56 713.547 738.218 709.212 738.218 703.882C738.218 698.553 742.56 694.217 747.897 694.217H788.998V671.032H768.696V656H745.477V671.13C728.464 672.372 715 686.582 715 703.882C715 721.996 729.758 736.732 747.897 736.732H772.241C778.054 736.732 782.782 741.453 782.782 747.257C782.782 753.062 778.054 757.783 772.241 757.783H719.783V780.968H745.477V796H768.696V780.968H772.241C790.856 780.968 806 765.846 806 747.257C806 728.669 790.855 713.547 772.241 713.547Z" fill="#FFF5F5"/>
<path d="M168.453 473.109C167.568 485.349 163.036 494.984 154.859 502.016C146.734 509.047 136.005 512.562 122.672 512.562C108.089 512.562 96.6042 507.667 88.2188 497.875C79.8854 488.031 75.7188 474.542 75.7188 457.406V450.453C75.7188 439.516 77.6458 429.88 81.5 421.547C85.3542 413.214 90.849 406.833 97.9844 402.406C105.172 397.927 113.505 395.688 122.984 395.688C136.109 395.688 146.682 399.203 154.703 406.234C162.724 413.266 167.359 423.135 168.609 435.844H145.172C144.599 428.5 142.542 423.188 139 419.906C135.51 416.573 130.172 414.906 122.984 414.906C115.172 414.906 109.312 417.719 105.406 423.344C101.552 428.917 99.5729 437.589 99.4688 449.359V457.953C99.4688 470.245 101.318 479.229 105.016 484.906C108.766 490.583 114.651 493.422 122.672 493.422C129.911 493.422 135.302 491.781 138.844 488.5C142.438 485.167 144.495 480.036 145.016 473.109H168.453ZM178.844 467.953C178.844 459.568 180.458 452.094 183.688 445.531C186.917 438.969 191.552 433.891 197.594 430.297C203.688 426.703 210.745 424.906 218.766 424.906C230.172 424.906 239.469 428.396 246.656 435.375C253.896 442.354 257.932 451.833 258.766 463.812L258.922 469.594C258.922 482.562 255.302 492.979 248.062 500.844C240.823 508.656 231.109 512.562 218.922 512.562C206.734 512.562 196.995 508.656 189.703 500.844C182.464 493.031 178.844 482.406 178.844 468.969V467.953ZM201.422 469.594C201.422 477.615 202.932 483.76 205.953 488.031C208.974 492.25 213.297 494.359 218.922 494.359C224.391 494.359 228.661 492.276 231.734 488.109C234.807 483.891 236.344 477.172 236.344 467.953C236.344 460.089 234.807 453.995 231.734 449.672C228.661 445.349 224.339 443.188 218.766 443.188C213.245 443.188 208.974 445.349 205.953 449.672C202.932 453.943 201.422 460.583 201.422 469.594ZM293.609 426.469L294.312 436.234C300.354 428.682 308.453 424.906 318.609 424.906C327.568 424.906 334.234 427.536 338.609 432.797C342.984 438.057 345.224 445.922 345.328 456.391V511H322.75V456.938C322.75 452.146 321.708 448.682 319.625 446.547C317.542 444.359 314.078 443.266 309.234 443.266C302.88 443.266 298.115 445.974 294.938 451.391V511H272.359V426.469H293.609ZM394.156 483.422L409.859 426.469H433.453L404.938 511H383.375L354.859 426.469H378.453L394.156 483.422ZM481.266 512.562C468.87 512.562 458.766 508.76 450.953 501.156C443.193 493.552 439.312 483.422 439.312 470.766V468.578C439.312 460.089 440.953 452.51 444.234 445.844C447.516 439.125 452.151 433.969 458.141 430.375C464.182 426.729 471.057 424.906 478.766 424.906C490.328 424.906 499.417 428.552 506.031 435.844C512.698 443.135 516.031 453.474 516.031 466.859V476.078H462.203C462.932 481.599 465.12 486.026 468.766 489.359C472.464 492.693 477.125 494.359 482.75 494.359C491.448 494.359 498.245 491.208 503.141 484.906L514.234 497.328C510.849 502.12 506.266 505.87 500.484 508.578C494.703 511.234 488.297 512.562 481.266 512.562ZM478.688 443.188C474.208 443.188 470.562 444.698 467.75 447.719C464.99 450.74 463.219 455.062 462.438 460.688H493.844V458.891C493.74 453.891 492.385 450.036 489.781 447.328C487.177 444.568 483.479 443.188 478.688 443.188ZM576.422 447.641C573.349 447.224 570.641 447.016 568.297 447.016C559.755 447.016 554.156 449.906 551.5 455.688V511H528.922V426.469H550.25L550.875 436.547C555.406 428.786 561.682 424.906 569.703 424.906C572.203 424.906 574.547 425.245 576.734 425.922L576.422 447.641ZM618.297 405.688V426.469H632.75V443.031H618.297V485.219C618.297 488.344 618.896 490.583 620.094 491.938C621.292 493.292 623.583 493.969 626.969 493.969C629.469 493.969 631.682 493.786 633.609 493.422V510.531C629.182 511.885 624.625 512.562 619.938 512.562C604.104 512.562 596.031 504.568 595.719 488.578V443.031H583.375V426.469H595.719V405.688H618.297ZM677.438 397.25L706.656 479.75L735.719 397.25H766.5V511H742.984V479.906L745.328 426.234L714.625 511H698.531L667.906 426.312L670.25 479.906V511H646.812V397.25H677.438ZM817.047 479.047L832.672 426.469H856.891L822.906 524.125L821.031 528.578C815.979 539.62 807.646 545.141 796.031 545.141C792.75 545.141 789.417 544.646 786.031 543.656V526.547L789.469 526.625C793.74 526.625 796.917 525.974 799 524.672C801.135 523.37 802.802 521.208 804 518.188L806.656 511.234L777.047 426.469H801.344L817.047 479.047ZM897.906 397.25L927.125 479.75L956.188 397.25H986.969V511H963.453V479.906L965.797 426.234L935.094 511H919L888.375 426.312L890.719 479.906V511H867.281V397.25H897.906ZM1002.44 467.953C1002.44 459.568 1004.05 452.094 1007.28 445.531C1010.51 438.969 1015.15 433.891 1021.19 430.297C1027.28 426.703 1034.34 424.906 1042.36 424.906C1053.77 424.906 1063.06 428.396 1070.25 435.375C1077.49 442.354 1081.53 451.833 1082.36 463.812L1082.52 469.594C1082.52 482.562 1078.9 492.979 1071.66 500.844C1064.42 508.656 1054.7 512.562 1042.52 512.562C1030.33 512.562 1020.59 508.656 1013.3 500.844C1006.06 493.031 1002.44 482.406 1002.44 468.969V467.953ZM1025.02 469.594C1025.02 477.615 1026.53 483.76 1029.55 488.031C1032.57 492.25 1036.89 494.359 1042.52 494.359C1047.98 494.359 1052.26 492.276 1055.33 488.109C1058.4 483.891 1059.94 477.172 1059.94 467.953C1059.94 460.089 1058.4 453.995 1055.33 449.672C1052.26 445.349 1047.93 443.188 1042.36 443.188C1036.84 443.188 1032.57 445.349 1029.55 449.672C1026.53 453.943 1025.02 460.583 1025.02 469.594ZM1117.2 426.469L1117.91 436.234C1123.95 428.682 1132.05 424.906 1142.2 424.906C1151.16 424.906 1157.83 427.536 1162.2 432.797C1166.58 438.057 1168.82 445.922 1168.92 456.391V511H1146.34V456.938C1146.34 452.146 1145.3 448.682 1143.22 446.547C1141.14 444.359 1137.67 443.266 1132.83 443.266C1126.47 443.266 1121.71 445.974 1118.53 451.391V511H1095.95V426.469H1117.2ZM1225.02 512.562C1212.62 512.562 1202.52 508.76 1194.7 501.156C1186.94 493.552 1183.06 483.422 1183.06 470.766V468.578C1183.06 460.089 1184.7 452.51 1187.98 445.844C1191.27 439.125 1195.9 433.969 1201.89 430.375C1207.93 426.729 1214.81 424.906 1222.52 424.906C1234.08 424.906 1243.17 428.552 1249.78 435.844C1256.45 443.135 1259.78 453.474 1259.78 466.859V476.078H1205.95C1206.68 481.599 1208.87 486.026 1212.52 489.359C1216.21 492.693 1220.88 494.359 1226.5 494.359C1235.2 494.359 1241.99 491.208 1246.89 484.906L1257.98 497.328C1254.6 502.12 1250.02 505.87 1244.23 508.578C1238.45 511.234 1232.05 512.562 1225.02 512.562ZM1222.44 443.188C1217.96 443.188 1214.31 444.698 1211.5 447.719C1208.74 450.74 1206.97 455.062 1206.19 460.688H1237.59V458.891C1237.49 453.891 1236.14 450.036 1233.53 447.328C1230.93 444.568 1227.23 443.188 1222.44 443.188ZM1303.14 479.047L1318.77 426.469H1342.98L1309 524.125L1307.12 528.578C1302.07 539.62 1293.74 545.141 1282.12 545.141C1278.84 545.141 1275.51 544.646 1272.12 543.656V526.547L1275.56 526.625C1279.83 526.625 1283.01 525.974 1285.09 524.672C1287.23 523.37 1288.9 521.208 1290.09 518.188L1292.75 511.234L1263.14 426.469H1287.44L1303.14 479.047Z" fill="black"/>
<defs>
<clipPath id="clip0">
<rect width="512" height="512" fill="white" transform="translate(446 26)"/>
</clipPath>
</defs>
</svg>
